<?xml version="1.0" encoding="UTF-8"?>
<svg version="1.1" xmlns="http://www.w3.org/2000/svg" width="1024" height="1024">
<path d="M0 0 C1.43920029 0.20132852 2.87849543 0.4019799 4.31787109 0.60205078 C36.97921687 5.19463857 68.71471907 12.52281357 100 23 C101.04349609 23.34611328 102.08699219 23.69222656 103.16210938 24.04882812 C152.13692665 40.45679297 198.68883055 65.06331275 240 96 C240.73089844 96.54543457 241.46179688 97.09086914 242.21484375 97.65283203 C254.45729809 106.81584652 266.18719403 116.42745883 277.48828125 126.734375 C278.84254709 127.95595228 280.20281147 129.17164314 281.5949707 130.34985352 C287.97099118 135.7802813 293.84714336 141.69588921 299.75463867 147.62426758 C301.55862085 149.43360933 303.36788665 151.23754319 305.17773438 153.04101562 C310.99759646 158.8572224 316.70449464 164.6949497 322 171 C322.87655981 172.01002188 323.75411275 173.01918302 324.6328125 174.02734375 C331.49423936 182.03951147 337.96789762 190.30198758 344.29980469 198.73779297 C345.43452676 200.24760554 346.5732152 201.75444516 347.71582031 203.25830078 C380.77856884 246.78500783 405.73962867 296.22643978 423 348 C423.35400879 349.05541992 423.70801758 350.11083984 424.07275391 351.19824219 C433.9801251 381.07377822 440.3773754 411.75679901 444.70574951 442.89654541 C444.97709792 444.83628411 445.25975828 446.77443144 445.54345703 448.71240234 C451.15755797 488.52401588 450.81852575 533.25314352 445 573 C444.79867148 574.43920029 444.5980201 575.87849543 444.39794922 577.31787109 C439.80536143 609.97921687 432.47718643 641.71471907 422 673 C421.65388672 674.04349609 421.30777344 675.08699219 420.95117188 676.16210938 C404.54320703 725.13692665 379.93668725 771.68883055 349 813 C348.45456543 813.73089844 347.90913086 814.46179688 347.34716797 815.21484375 C338.18415348 827.45729809 328.57254117 839.18719403 318.265625 850.48828125 C317.04404772 851.84254709 315.82835686 853.20281147 314.65014648 854.5949707 C309.2197187 860.97099118 303.30411079 866.84714336 297.37573242 872.75463867 C295.56639067 874.55862085 293.76245681 876.36788665 291.95898438 878.17773438 C286.1427776 883.99759646 280.3050503 889.70449464 274 895 C272.98997812 895.87655981 271.98081698 896.75411275 270.97265625 897.6328125 C262.96048853 904.49423936 254.69801242 910.96789762 246.26220703 917.29980469 C244.75239446 918.43452676 243.24555484 919.5732152 241.74169922 920.71582031 C198.21499217 953.77856884 148.77356022 978.73962867 97 996 C95.94458008 996.35400879 94.88916016 996.70801758 93.80175781 997.07275391 C63.92622178 1006.9801251 33.24320099 1013.3773754 2.10345459 1017.70574951 C0.16371589 1017.97709792 -1.77443144 1018.25975828 -3.71240234 1018.54345703 C-43.52401588 1024.15755797 -88.25314352 1023.81852575 -128 1018 C-129.43920029 1017.79867148 -130.87849543 1017.5980201 -132.31787109 1017.39794922 C-164.97921687 1012.80536143 -196.71471907 1005.47718643 -228 995 C-229.04349609 994.65388672 -230.08699219 994.30777344 -231.16210938 993.95117188 C-280.13692665 977.54320703 -326.68883055 952.93668725 -368 922 C-369.09634766 921.18184814 -369.09634766 921.18184814 -370.21484375 920.34716797 C-382.45729809 911.18415348 -394.18719403 901.57254117 -405.48828125 891.265625 C-406.84254709 890.04404772 -408.20281147 888.82835686 -409.5949707 887.65014648 C-415.97099118 882.2197187 -421.84714336 876.30411079 -427.75463867 870.37573242 C-429.55862085 868.56639067 -431.36788665 866.76245681 -433.17773438 864.95898438 C-438.99759646 859.1427776 -444.70449464 853.3050503 -450 847 C-450.87655981 845.98997812 -451.75411275 844.98081698 -452.6328125 843.97265625 C-459.49423936 835.96048853 -465.96789762 827.69801242 -472.29980469 819.26220703 C-473.43452676 817.75239446 -474.5732152 816.24555484 -475.71582031 814.74169922 C-508.77856884 771.21499217 -533.73962867 721.77356022 -551 670 C-551.35400879 668.94458008 -551.70801758 667.88916016 -552.07275391 666.80175781 C-561.9801251 636.92622178 -568.3773754 606.24320099 -572.70574951 575.10345459 C-572.97709792 573.16371589 -573.25975828 571.22556856 -573.54345703 569.28759766 C-579.15755797 529.47598412 -578.81852575 484.74685648 -573 445 C-572.79867148 443.56079971 -572.5980201 442.12150457 -572.39794922 440.68212891 C-567.80536143 408.02078313 -560.47718643 376.28528093 -550 345 C-549.65388672 343.95650391 -549.30777344 342.91300781 -548.95117188 341.83789062 C-532.54320703 292.86307335 -507.93668725 246.31116945 -477 205 C-476.45456543 204.26910156 -475.90913086 203.53820312 -475.34716797 202.78515625 C-466.18415348 190.54270191 -456.57254117 178.81280597 -446.265625 167.51171875 C-445.04404772 166.15745291 -443.82835686 164.79718853 -442.65014648 163.4050293 C-437.2197187 157.02900882 -431.30411079 151.15285664 -425.37573242 145.24536133 C-423.56639067 143.44137915 -421.76245681 141.63211335 -419.95898438 139.82226562 C-414.1427776 134.00240354 -408.3050503 128.29550536 -402 123 C-400.98997812 122.12344019 -399.98081698 121.24588725 -398.97265625 120.3671875 C-390.96048853 113.50576064 -382.69801242 107.03210238 -374.26220703 100.70019531 C-372.75239446 99.56547324 -371.24555484 98.4267848 -369.74169922 97.28417969 C-326.21499217 64.22143116 -276.77356022 39.26037133 -225 22 C-223.94458008 21.64599121 -222.88916016 21.29198242 -221.80175781 20.92724609 C-191.92622178 11.0198749 -161.24320099 4.6226246 -130.10345459 0.29425049 C-128.16371589 0.02290208 -126.22556856 -0.25975828 -124.28759766 -0.54345703 C-84.47598412 -6.15755797 -39.74685648 -5.81852575 0 0 Z " fill="#FEFEFE" transform="translate(576,3)"/>
<path d="M0 0 C1.47847412 0.20085205 1.47847412 0.20085205 2.98681641 0.40576172 C61.82371693 8.73602479 121.09748464 32.49987992 167.44921875 69.98046875 C168.14660156 70.54378906 168.84398437 71.10710937 169.5625 71.6875 C170.12066406 72.16574219 170.67882812 72.64398438 171.25390625 73.13671875 C173.80934715 74.40014703 175.27284738 73.73210844 178 73 C179.87171061 72.10398667 181.70866055 71.13358511 183.515625 70.11328125 C184.5890918 69.51177246 185.66255859 68.91026367 186.76855469 68.29052734 C187.92910182 67.63129994 189.08958185 66.9719544 190.25 66.3125 C191.45959659 65.63167648 192.66956343 64.95151042 193.87988281 64.27197266 C196.37108719 62.87207318 198.86018978 61.46854193 201.34765625 60.06201172 C205.77712036 57.55868717 210.22005006 55.07962191 214.66259766 52.59960938 C223.74567916 47.52583998 232.81340046 42.42452242 241.875 37.3125 C242.81142334 36.78495117 243.74784668 36.25740234 244.71264648 35.71386719 C249.36351968 33.08597942 253.99193709 30.42665788 258.58984375 27.70703125 C259.91169678 26.92815552 259.91169678 26.92815552 261.26025391 26.13354492 C262.9243287 25.14996752 264.58438745 24.15955389 266.23974609 23.16137695 C268.12554083 22.04738348 270.05884323 21.01445238 272 20 C272.66 20.33 273.32 20.66 274 21 C273.25548503 22.48902995 272.5109527 23.97805122 271.76635742 25.46704102 C271.07094896 26.85802498 270.37581214 28.24914478 269.6809082 29.64038086 C267.52138888 33.96264061 265.3559093 38.28181221 263.18359375 42.59765625 C255.53545006 57.8119632 248.043209 73.09810144 240.88671875 88.55078125 C236.939711 97.06169944 232.76594976 105.40544045 228.32397461 113.67089844 C226.33351725 117.38705489 224.44572734 121.02822159 223 125 C223.58265625 125.66902344 224.1653125 126.33804688 224.765625 127.02734375 C232.10412981 135.62354829 238.67280381 144.63835292 245 154 C245.48194824 154.70946777 245.96389648 155.41893555 246.46044922 156.14990234 C276.19573355 200.34501339 294.51874071 252.26953379 301 305 C301.08720306 305.70711121 301.17440613 306.41422241 301.26425171 307.14276123 C302.88229236 320.61130813 303.36525939 333.94168371 303.3125 347.5 C303.31034485 348.50401855 303.3081897 349.50803711 303.30596924 350.54248047 C303.04464771 426.73356543 277.19511153 511.64430239 224.984375 568.9375 C223.70264984 571.05027185 223.70264984 571.05027185 224.71313477 573.68896484 C226.10980218 577.28251512 227.78160304 580.65053129 229.60546875 584.0390625 C230.13906509 585.04362488 230.13906509 585.04362488 230.68344116 586.06848145 C231.84703784 588.25637652 233.01719458 590.44068721 234.1875 592.625 C235.0061606 594.16109173 235.82443381 595.69738997 236.64233398 597.23388672 C239.08867519 601.82592465 241.5435999 606.41333713 244 611 C244.68071778 612.27210667 245.36138511 613.54424035 246.04199219 614.81640625 C248.47567777 619.36446681 250.91121339 623.91152962 253.35058594 628.45654297 C260.94720306 642.61275921 268.47151089 656.80747077 276 671 C275.34 671.33 274.68 671.66 274 672 C271.70810643 670.97333034 269.5520819 669.88685176 267.3515625 668.6875 C266.67578659 668.32729767 266.00001068 667.96709534 265.30375671 667.59597778 C263.0734035 666.40480911 260.84929874 665.20243079 258.625 664 C257.07746155 663.17097541 255.52952467 662.34269417 253.98120117 661.51513672 C250.05619363 659.41504015 246.13603728 657.30606845 242.21734619 655.19421387 C238.92196791 653.41939564 235.62331013 651.65071663 232.32421875 649.8828125 C231.73152695 649.56519455 231.13883514 649.2475766 230.52818298 648.92033386 C229.65438744 648.45207939 229.65438744 648.45207939 228.76293945 647.97436523 C226.47057641 646.74570536 224.17874284 645.51605708 221.88745117 644.28540039 C213.53111493 639.80188244 205.13974112 635.38921221 196.71801758 631.02978516 C195.43254028 630.36342041 195.43254028 630.36342041 194.12109375 629.68359375 C192.86981689 629.03946533 192.86981689 629.03946533 191.59326172 628.38232422 C189.73498396 627.39177925 187.90019126 626.35668091 186.08251953 625.29345703 C185.11813965 624.73384277 184.15375977 624.17422852 183.16015625 623.59765625 C182.29140869 623.07824463 181.42266113 622.55883301 180.52758789 622.02368164 C177.49377393 620.79497673 176.07298319 620.97685163 173 622 C170.41494472 623.84486593 170.41494472 623.84486593 167.8125 626.25 C138.86341404 651.29285758 103.81381009 669.90304032 68 683 C67.2172168 683.29165039 66.43443359 683.58330078 65.62792969 683.88378906 C-17.32345399 714.50688983 -114.4731792 709.11483476 -194.55078125 672.55859375 C-196.36915508 671.70993229 -198.1855618 670.85704357 -200 670 C-200.92216309 669.56574707 -201.84432617 669.13149414 -202.79443359 668.68408203 C-226.75267825 657.29382397 -248.59256058 643.2858197 -269.4609375 626.9609375 C-272.98595781 623.89559342 -272.98595781 623.89559342 -277.32910156 623.1809082 C-280.43249116 624.13263326 -282.92889884 625.46955121 -285.734375 627.10546875 C-286.85295898 627.75209473 -287.97154297 628.3987207 -289.12402344 629.06494141 C-290.3326888 629.77244982 -291.54134748 630.47996964 -292.75 631.1875 C-294.6466732 632.28724909 -296.5448511 633.38436757 -298.44317627 634.48126221 C-299.73621909 635.22850704 -301.02881857 635.97651953 -302.32098389 636.72528076 C-308.42639876 640.25966994 -314.58370463 643.69808073 -320.75 647.125 C-330.04394935 652.30321549 -339.2493988 657.61895287 -348.42529297 663.00317383 C-368.36914063 674.68457031 -368.36914063 674.68457031 -377 679 C-375.60542513 674.4732272 -373.78941553 670.2986428 -371.65625 666.08203125 C-371.16336487 665.09694832 -371.16336487 665.09694832 -370.66052246 664.09196472 C-369.96307832 662.70008762 -369.26369803 661.30917921 -368.5625 659.91918945 C-367.5268018 657.86564171 -366.49721491 655.80913113 -365.46875 653.75195312 C-361.81366643 646.4612488 -358.07823499 639.21734983 -354.265625 632.0078125 C-348.70391515 621.48241735 -343.2541627 610.90186008 -337.88183594 600.27856445 C-336.7787054 598.10448627 -335.66915137 595.93365731 -334.55371094 593.76586914 C-332.92166421 590.59226119 -331.31030306 587.40891475 -329.703125 584.22265625 C-328.94724091 582.7681179 -328.94724091 582.7681179 -328.17608643 581.28419495 C-327.50352814 579.9351432 -327.50352814 579.9351432 -326.81738281 578.55883789 C-326.41674622 577.77231339 -326.01610962 576.98578888 -325.60333252 576.1754303 C-324.76484082 573.97888354 -324.76484082 573.97888354 -325.81329346 571.82037354 C-326.97658508 570.03591781 -328.16502825 568.32150954 -329.46875 566.63671875 C-329.95239014 566.00499756 -330.43603027 565.37327637 -330.93432617 564.72241211 C-331.45099854 564.05089111 -331.9676709 563.37937012 -332.5 562.6875 C-341.87709029 550.32723907 -350.21663794 537.4138793 -358 524 C-358.39155273 523.33194336 -358.78310547 522.66388672 -359.18652344 521.97558594 C-385.07741162 477.60014745 -399.72838061 428.0565308 -404 377 C-404.05929687 376.31856934 -404.11859375 375.63713867 -404.1796875 374.93505859 C-411.11587757 292.29943703 -387.26767042 205.71061796 -336.703125 139.6640625 C-336.18443848 138.98085938 -335.66575195 138.29765625 -335.13134766 137.59375 C-334.15621729 136.31928464 -333.16706841 135.05537405 -332.16162109 133.8046875 C-330.3289919 131.42220125 -329.02037805 129.71922525 -328.93359375 126.65625 C-330.55622498 122.6145312 -332.45118665 118.74937174 -334.4375 114.875 C-334.88488525 113.99118652 -335.33227051 113.10737305 -335.79321289 112.19677734 C-339.18445049 105.52356282 -342.66845285 98.90040484 -346.17749023 92.28857422 C-349.37836875 86.23770066 -352.45563631 80.1309138 -355.5 74 C-360.12202089 64.69831488 -364.8940759 55.48649254 -369.76953125 46.31542969 C-371.05764353 43.89152952 -372.3417845 41.46555829 -373.625 39.0390625 C-375.74790286 35.02492762 -377.87323325 31.01208897 -380 27 C-376.39971525 27 -374.75603989 27.9765223 -371.57421875 29.640625 C-369.93211426 30.49503174 -369.93211426 30.49503174 -368.25683594 31.36669922 C-367.06693436 31.9942331 -365.87715893 32.62200623 -364.6875 33.25 C-363.45492221 33.89501821 -362.22217279 34.53970857 -360.98925781 35.18408203 C-352.8229472 39.46304479 -344.72309235 43.85848055 -336.64892578 48.30859375 C-327.2645051 53.45483421 -317.74665542 58.33881658 -308.22167969 63.21826172 C-307.60024078 63.5370932 -306.97880188 63.85592468 -306.33853149 64.18441772 C-305.10081768 64.81871037 -303.86219715 65.45123701 -302.62265015 66.0819397 C-299.34325795 67.75888259 -296.10571996 69.48822354 -292.89794922 71.29882812 C-292.22380478 71.67440857 -291.54966034 72.04998901 -290.85508728 72.43695068 C-289.56535081 73.15848019 -288.28196358 73.89152051 -287.00636292 74.63775635 C-284.23320181 76.1800384 -282.42035233 77.02706004 -279.21630859 76.82080078 C-276.3120375 75.74521592 -274.50644665 74.17735908 -272.1875 72.125 C-222.79162074 30.42461725 -157.51502182 6.77298722 -94 -1 C-93.05108887 -1.11859375 -92.10217773 -1.2371875 -91.12451172 -1.359375 C-61.07219559 -4.94071149 -29.93742473 -4.13535147 0 0 Z " fill="#FDFDFD" transform="translate(563,143)"/>
<path d="M0 0 C1.47847412 0.20085205 1.47847412 0.20085205 2.98681641 0.40576172 C61.82371693 8.73602479 121.09748464 32.49987992 167.44921875 69.98046875 C168.14660156 70.54378906 168.84398437 71.10710937 169.5625 71.6875 C170.12066406 72.16574219 170.67882812 72.64398438 171.25390625 73.13671875 C173.80934715 74.40014703 175.27284738 73.73210844 178 73 C179.87171061 72.10398667 181.70866055 71.13358511 183.515625 70.11328125 C184.5890918 69.51177246 185.66255859 68.91026367 186.76855469 68.29052734 C187.92910182 67.63129994 189.08958185 66.9719544 190.25 66.3125 C191.45959659 65.63167648 192.66956343 64.95151042 193.87988281 64.27197266 C196.37108719 62.87207318 198.86018978 61.46854193 201.34765625 60.06201172 C205.77712036 57.55868717 210.22005006 55.07962191 214.66259766 52.59960938 C223.74567916 47.52583998 232.81340046 42.42452242 241.875 37.3125 C242.81142334 36.78495117 243.74784668 36.25740234 244.71264648 35.71386719 C249.36351968 33.08597942 253.99193709 30.42665788 258.58984375 27.70703125 C259.91169678 26.92815552 259.91169678 26.92815552 261.26025391 26.13354492 C262.9243287 25.14996752 264.58438745 24.15955389 266.23974609 23.16137695 C268.12554083 22.04738348 270.05884323 21.01445238 272 20 C272.66 20.33 273.32 20.66 274 21 C273.25548503 22.48902995 272.5109527 23.97805122 271.76635742 25.46704102 C271.07094896 26.85802498 270.37581214 28.24914478 269.6809082 29.64038086 C267.52138888 33.96264061 265.3559093 38.28181221 263.18359375 42.59765625 C255.53545006 57.8119632 248.043209 73.09810144 240.88671875 88.55078125 C236.939711 97.06169944 232.76594976 105.40544045 228.32397461 113.67089844 C226.33351725 117.38705489 224.44572734 121.02822159 223 125 C223.58265625 125.66902344 224.1653125 126.33804688 224.765625 127.02734375 C232.10412981 135.62354829 238.67280381 144.63835292 245 154 C245.48194824 154.70946777 245.96389648 155.41893555 246.46044922 156.14990234 C276.19573355 200.34501339 294.51874071 252.26953379 301 305 C301.08720306 305.70711121 301.17440613 306.41422241 301.26425171 307.14276123 C302.88229236 320.61130813 303.36525939 333.94168371 303.3125 347.5 C303.31034485 348.50401855 303.3081897 349.50803711 303.30596924 350.54248047 C303.04464771 426.73356543 277.19511153 511.64430239 224.984375 568.9375 C223.70264984 571.05027185 223.70264984 571.05027185 224.71313477 573.68896484 C226.10980218 577.28251512 227.78160304 580.65053129 229.60546875 584.0390625 C230.13906509 585.04362488 230.13906509 585.04362488 230.68344116 586.06848145 C231.84703784 588.25637652 233.01719458 590.44068721 234.1875 592.625 C235.0061606 594.16109173 235.82443381 595.69738997 236.64233398 597.23388672 C239.08867519 601.82592465 241.5435999 606.41333713 244 611 C244.68071778 612.27210667 245.36138511 613.54424035 246.04199219 614.81640625 C248.47567777 619.36446681 250.91121339 623.91152962 253.35058594 628.45654297 C260.94720306 642.61275921 268.47151089 656.80747077 276 671 C275.34 671.33 274.68 671.66 274 672 C271.70810643 670.97333034 269.5520819 669.88685176 267.3515625 668.6875 C266.67578659 668.32729767 266.00001068 667.96709534 265.30375671 667.59597778 C263.0734035 666.40480911 260.84929874 665.20243079 258.625 664 C257.07746155 663.17097541 255.52952467 662.34269417 253.98120117 661.51513672 C250.05619363 659.41504015 246.13603728 657.30606845 242.21734619 655.19421387 C238.92196791 653.41939564 235.62331013 651.65071663 232.32421875 649.8828125 C231.73152695 649.56519455 231.13883514 649.2475766 230.52818298 648.92033386 C229.65438744 648.45207939 229.65438744 648.45207939 228.76293945 647.97436523 C226.47057641 646.74570536 224.17874284 645.51605708 221.88745117 644.28540039 C213.53111493 639.80188244 205.13974112 635.38921221 196.71801758 631.02978516 C195.43254028 630.36342041 195.43254028 630.36342041 194.12109375 629.68359375 C192.86981689 629.03946533 192.86981689 629.03946533 191.59326172 628.38232422 C189.73498396 627.39177925 187.90019126 626.35668091 186.08251953 625.29345703 C185.11813965 624.73384277 184.15375977 624.17422852 183.16015625 623.59765625 C182.29140869 623.07824463 181.42266113 622.55883301 180.52758789 622.02368164 C177.49377393 620.79497673 176.07298319 620.97685163 173 622 C170.41494472 623.84486593 170.41494472 623.84486593 167.8125 626.25 C138.86341404 651.29285758 103.81381009 669.90304032 68 683 C67.2172168 683.29165039 66.43443359 683.58330078 65.62792969 683.88378906 C-17.32345399 714.50688983 -114.4731792 709.11483476 -194.55078125 672.55859375 C-196.36915508 671.70993229 -198.1855618 670.85704357 -200 670 C-200.92216309 669.56574707 -201.84432617 669.13149414 -202.79443359 668.68408203 C-226.75267825 657.29382397 -248.59256058 643.2858197 -269.4609375 626.9609375 C-272.98595781 623.89559342 -272.98595781 623.89559342 -277.32910156 623.1809082 C-280.43249116 624.13263326 -282.92889884 625.46955121 -285.734375 627.10546875 C-286.85295898 627.75209473 -287.97154297 628.3987207 -289.12402344 629.06494141 C-290.3326888 629.77244982 -291.54134748 630.47996964 -292.75 631.1875 C-294.6466732 632.28724909 -296.5448511 633.38436757 -298.44317627 634.48126221 C-299.73621909 635.22850704 -301.02881857 635.97651953 -302.32098389 636.72528076 C-308.42639876 640.25966994 -314.58370463 643.69808073 -320.75 647.125 C-330.04394935 652.30321549 -339.2493988 657.61895287 -348.42529297 663.00317383 C-368.36914063 674.68457031 -368.36914063 674.68457031 -377 679 C-375.60542513 674.4732272 -373.78941553 670.2986428 -371.65625 666.08203125 C-371.16336487 665.09694832 -371.16336487 665.09694832 -370.66052246 664.09196472 C-369.96307832 662.70008762 -369.26369803 661.30917921 -368.5625 659.91918945 C-367.5268018 657.86564171 -366.49721491 655.80913113 -365.46875 653.75195312 C-361.81366643 646.4612488 -358.07823499 639.21734983 -354.265625 632.0078125 C-348.70391515 621.48241735 -343.2541627 610.90186008 -337.88183594 600.27856445 C-336.7787054 598.10448627 -335.66915137 595.93365731 -334.55371094 593.76586914 C-332.92166421 590.59226119 -331.31030306 587.40891475 -329.703125 584.22265625 C-328.94724091 582.7681179 -328.94724091 582.7681179 -328.17608643 581.28419495 C-327.50352814 579.9351432 -327.50352814 579.9351432 -326.81738281 578.55883789 C-326.41674622 577.77231339 -326.01610962 576.98578888 -325.60333252 576.1754303 C-324.76484082 573.97888354 -324.76484082 573.97888354 -325.81329346 571.82037354 C-326.97658508 570.03591781 -328.16502825 568.32150954 -329.46875 566.63671875 C-329.95239014 566.00499756 -330.43603027 565.37327637 -330.93432617 564.72241211 C-331.45099854 564.05089111 -331.9676709 563.37937012 -332.5 562.6875 C-341.87709029 550.32723907 -350.21663794 537.4138793 -358 524 C-358.39155273 523.33194336 -358.78310547 522.66388672 -359.18652344 521.97558594 C-385.07741162 477.60014745 -399.72838061 428.0565308 -404 377 C-404.05929687 376.31856934 -404.11859375 375.63713867 -404.1796875 374.93505859 C-411.11587757 292.29943703 -387.26767042 205.71061796 -336.703125 139.6640625 C-336.18443848 138.98085938 -335.66575195 138.29765625 -335.13134766 137.59375 C-334.15621729 136.31928464 -333.16706841 135.05537405 -332.16162109 133.8046875 C-330.3289919 131.42220125 -329.02037805 129.71922525 -328.93359375 126.65625 C-330.55622498 122.6145312 -332.45118665 118.74937174 -334.4375 114.875 C-334.88488525 113.99118652 -335.33227051 113.10737305 -335.79321289 112.19677734 C-339.18445049 105.52356282 -342.66845285 98.90040484 -346.17749023 92.28857422 C-349.37836875 86.23770066 -352.45563631 80.1309138 -355.5 74 C-360.12202089 64.69831488 -364.8940759 55.48649254 -369.76953125 46.31542969 C-371.05764353 43.89152952 -372.3417845 41.46555829 -373.625 39.0390625 C-375.74790286 35.02492762 -377.87323325 31.01208897 -380 27 C-376.39971525 27 -374.75603989 27.9765223 -371.57421875 29.640625 C-369.93211426 30.49503174 -369.93211426 30.49503174 -368.25683594 31.36669922 C-367.06693436 31.9942331 -365.87715893 32.62200623 -364.6875 33.25 C-363.45492221 33.89501821 -362.22217279 34.53970857 -360.98925781 35.18408203 C-352.8229472 39.46304479 -344.72309235 43.85848055 -336.64892578 48.30859375 C-327.2645051 53.45483421 -317.74665542 58.33881658 -308.22167969 63.21826172 C-307.60024078 63.5370932 -306.97880188 63.85592468 -306.33853149 64.18441772 C-305.10081768 64.81871037 -303.86219715 65.45123701 -302.62265015 66.0819397 C-299.34325795 67.75888259 -296.10571996 69.48822354 -292.89794922 71.29882812 C-292.22380478 71.67440857 -291.54966034 72.04998901 -290.85508728 72.43695068 C-289.56535081 73.15848019 -288.28196358 73.89152051 -287.00636292 74.63775635 C-284.23320181 76.1800384 -282.42035233 77.02706004 -279.21630859 76.82080078 C-276.3120375 75.74521592 -274.50644665 74.17735908 -272.1875 72.125 C-222.79162074 30.42461725 -157.51502182 6.77298722 -94 -1 C-93.05108887 -1.11859375 -92.10217773 -1.2371875 -91.12451172 -1.359375 C-61.07219559 -4.94071149 -29.93742473 -4.13535147 0 0 Z M-101 50 C-102.24894043 50.19352051 -103.49788086 50.38704102 -104.78466797 50.58642578 C-107.641194 51.06802565 -110.4754219 51.60296342 -113.3125 52.1875 C-114.82880005 52.49723755 -114.82880005 52.49723755 -116.37573242 52.81323242 C-172.72402386 64.8184878 -224.62463042 93.06002919 -266 133 C-266.61794434 133.59603027 -267.23588867 134.19206055 -267.87255859 134.80615234 C-275.78896657 142.48488983 -283.22580459 150.27807029 -290 159 C-290.85346472 160.05370968 -291.7090389 161.10571331 -292.56640625 162.15625 C-303.88081221 176.11935718 -313.60167729 191.11975162 -322 207 C-322.3398291 207.64114746 -322.6796582 208.28229492 -323.02978516 208.94287109 C-343.05205101 247.06273736 -355.88060184 290.46832898 -356.23828125 333.703125 C-356.24812042 334.69126694 -356.25795959 335.67940887 -356.26809692 336.69749451 C-356.44510137 359.10500728 -356.23457094 380.92125717 -352 403 C-351.76394043 404.23089355 -351.52788086 405.46178711 -351.28466797 406.72998047 C-340.74328623 459.58641229 -316.66143244 509.98974007 -280.03515625 549.78125 C-278.2045558 551.77699099 -276.44163517 553.81230611 -274.6875 555.875 C-267.45473294 564.16745154 -259.4897567 572.00247016 -251 579 C-250.49694336 579.41685059 -249.99388672 579.83370117 -249.47558594 580.26318359 C-235.1353684 592.0981824 -220.15083378 602.78087109 -204 612 C-203.26475098 612.42635742 -202.52950195 612.85271484 -201.77197266 613.29199219 C-165.56553477 634.22466325 -125.54370309 647.3165086 -84 652 C-83.17000488 652.09571289 -82.34000977 652.19142578 -81.48486328 652.29003906 C-71.10392888 653.32276529 -60.67171178 653.2437121 -50.25 653.25 C-48.7423407 653.25101212 -48.7423407 653.25101212 -47.20422363 653.25204468 C-32.23196634 653.23608119 -17.75663674 652.72630726 -3 650 C-1.51209961 649.74259033 -1.51209961 649.74259033 0.00585938 649.47998047 C69.16543054 637.42553185 138.80426708 600.47441995 182.84375 544.70703125 C184.28256063 542.90069834 185.76257038 541.12643907 187.28125 539.38671875 C195.51331974 529.9385478 202.27422236 519.5509883 209 509 C209.69657715 507.90727783 209.69657715 507.90727783 210.40722656 506.79248047 C253.02558464 439.08454314 264.19856069 356.35327711 247.328125 278.91601562 C236.18286254 230.28508842 212.24698953 184.05246588 178.26953125 147.453125 C176.27530546 145.29757629 174.34716597 143.10513865 172.4375 140.875 C166.1732787 133.68437978 159.30995092 127.11483196 152 121 C151.46020508 120.54641113 150.92041016 120.09282227 150.36425781 119.62548828 C98.59132883 76.2874747 31.51585036 47.08673593 -36.703125 46.796875 C-37.7834198 46.79117493 -38.8637146 46.78547485 -39.97674561 46.77960205 C-42.25239099 46.77022073 -44.52804953 46.7636457 -46.80371094 46.75976562 C-50.20012684 46.75014132 -53.59591502 46.71908405 -56.9921875 46.6875 C-71.8801842 46.61534143 -86.29055916 47.71033498 -101 50 Z " fill="#161617" transform="translate(563,143)"/>
<path d="M0 0 C0.8971875 0.474375 1.794375 0.94875 2.71875 1.4375 C9.61956375 5.29601952 16.10841809 9.72326 22.56884766 14.26782227 C23.21644043 14.72213623 23.8640332 15.1764502 24.53125 15.64453125 C25.10423828 16.05034424 25.67722656 16.45615723 26.26757812 16.87426758 C29.8205868 19.18302223 32.42218129 20.27747387 36.6875 20.25 C37.86892578 20.25773437 37.86892578 20.25773437 39.07421875 20.265625 C41.58970856 20.03724942 43.7758065 19.60536876 46.21875 19.01171875 C58.39673424 16.19315052 72.18131959 16.3398514 83 23 C94.98514815 30.76750071 101.20671341 41.55754585 106.76782227 54.36254883 C109.50771791 60.53443763 112.57070645 65.37322136 119.0625 68.0625 C119.83851563 68.38734375 120.61453125 68.7121875 121.4140625 69.046875 C124.22661605 70.08352616 127.06930038 70.94245487 129.9375 71.8125 C136.18152538 73.85152735 140.94254085 76.84963166 146 81 C146.71027344 81.57363281 147.42054688 82.14726562 148.15234375 82.73828125 C158.39253288 91.91710721 161.99495352 105.16031562 165.42797852 118.00415039 C167.51188766 125.49564769 169.48321231 129.92208087 176.41796875 134.01953125 C177.67071128 134.62504555 178.92739279 135.22246505 180.1875 135.8125 C194.06835908 142.85778008 201.13270959 151.72475802 206.15625 166.37109375 C208.83769961 177.9038099 207.45537843 189.77040977 204.4765625 201.09375 C204.21150909 202.12439072 203.94645569 203.15503143 203.67337036 204.21690369 C200.53764564 216.14570393 196.75334415 227.85822494 192.875 239.5625 C192.5041629 240.68910034 192.13332581 241.81570068 191.75125122 242.97644043 C175.61462355 291.94078873 175.61462355 291.94078873 164 313 C163.40316406 314.14210938 162.80632812 315.28421875 162.19140625 316.4609375 C154.24711208 331.16035915 143.56675834 344.01642154 132 356 C130.80503906 357.27230469 130.80503906 357.27230469 129.5859375 358.5703125 C123.58033416 364.81066255 117.02364995 370.14216704 110.14599609 375.36767578 C107.73230874 377.2036159 105.32902904 379.05276125 102.92578125 380.90234375 C95.15819445 386.86564581 87.38431633 392.80135631 79.375 398.4375 C70.16292949 404.94021663 61.87176723 411.76299325 54.38671875 420.2265625 C52 422 52 422 49.22792721 421.78456688 C45.82890075 420.95841331 43.09035823 419.78991042 39.96644592 418.22036743 C39.38951585 417.93325846 38.81258577 417.64614949 38.21817297 417.35034025 C36.29659468 416.39166482 34.38094849 415.42170521 32.46508789 414.45166016 C31.08316701 413.75931594 29.70088912 413.06768393 28.31828308 412.37670898 C24.56570216 410.49885715 20.81811323 408.61123291 17.07127309 406.72195864 C13.12656828 404.73518242 9.17712561 402.75787067 5.22813416 400.77963257 C-2.27329639 397.02011415 -9.77078823 393.25281289 -17.26674515 389.48239458 C-30.61925509 382.76655335 -43.97905959 376.0652394 -57.33924109 369.36467588 C-62.01157647 367.02099116 -66.68243174 364.67439012 -71.35205311 362.3253029 C-86.31801211 354.79772732 -101.3006527 347.32889501 -116.4450531 340.16429138 C-122.38774372 337.35262979 -128.2604422 334.408484 -134.125 331.4375 C-140.43598587 328.24814882 -146.74902745 325.08798916 -153.171875 322.12890625 C-154.61796143 321.46000366 -154.61796143 321.46000366 -156.09326172 320.77758789 C-157.89177974 319.95157027 -159.6952367 319.13618656 -161.50439453 318.33374023 C-167.74421253 315.46508221 -171.07983061 312.6495345 -173.578125 306.11328125 C-174.13920332 304.51434456 -174.69616325 302.91395941 -175.25 301.3125 C-178.79832484 291.56157787 -183.04080909 282.23174701 -187.5 272.875 C-188.19182036 271.42057635 -188.88363344 269.96614923 -189.57543945 268.51171875 C-190.63748767 266.28011753 -191.69985811 264.04867223 -192.76313782 261.81765747 C-229.44777737 184.76718301 -229.44777737 184.76718301 -222.96875 163.63671875 C-218.09884951 153.20701519 -209.89949098 144.91813849 -202.22265625 136.50390625 C-200.0379395 134.04274029 -197.98500576 131.51339434 -195.9375 128.9375 C-191.20215399 123.07469066 -186.0503013 117.63767705 -180.84741211 112.18920898 C-177.60099585 108.78589529 -174.41286557 105.35879254 -171.3359375 101.80078125 C-161.70704048 90.70945638 -149.3447281 80.22258655 -134.16015625 78.71875 C-113.63376784 78.08473028 -96.23561262 90.79920676 -79.60644531 101.35058594 C-77.14912732 102.90562906 -74.6823744 104.44408711 -72.2109375 105.9765625 C-16.27547536 140.76861903 -16.27547536 140.76861903 -12 156 C-10.81910785 164.68478912 -12.87446952 172.6117552 -17.953125 179.7421875 C-23.33764544 186.08688466 -29.59695846 191.47620902 -38 193 C-66.91587415 195.25151412 -94.18542583 179.89206009 -115.85546875 161.83984375 C-116.56316406 161.23269531 -117.27085937 160.62554687 -118 160 C-118.73863281 159.38253906 -119.47726562 158.76507813 -120.23828125 158.12890625 C-123.91378701 155.00439038 -127.14518597 151.92536929 -130 148 C-130.66042216 157.31929043 -129.54935224 166.8884536 -123.625 174.5 C-120.87132526 177.12254737 -118.24445066 179.03823914 -115 181 C-119.5509999 186.17872403 -125.16577592 189.41457127 -131 193 C-131.99 193.66 -132.98 194.32 -134 195 C-125.11594821 195.30634661 -115.84590515 194.74091664 -107.43359375 191.71875 C-104 191 -104 191 -101.10546875 192.2734375 C-100.14253906 192.96695313 -99.17960937 193.66046875 -98.1875 194.375 C-84.61846636 203.56354299 -68.94077678 209.38511334 -52.875 212.3125 C-44.57884075 214.02134343 -38.88937662 218.06379455 -32.2265625 223.09375 C-23.14272699 229.91298786 -15.43470721 233.51341671 -4 234 C-3.78085937 234.68964844 -3.56171875 235.37929688 -3.3359375 236.08984375 C2.76245933 254.16192217 16.48560864 266.60055413 32.91796875 275.59765625 C41.82451308 279.90646401 50.42571653 281.15246624 60.23828125 281.55859375 C64.16678097 282.18648692 66.85409779 283.66259931 69.44921875 286.69140625 C69.85785156 287.30886719 70.26648438 287.92632813 70.6875 288.5625 C78.4616762 299.23485776 88.68126046 308.85429225 102.10693359 311.39941406 C114.88501074 312.82483317 125.24160072 309.06527023 135.22412109 301.18896484 C145.28721054 292.81457539 151.94866007 282.42655249 158 271 C154.76461185 273.50644455 151.86948107 276.08876758 149.0625 279.0625 C143.18805382 284.99588711 136.73693126 290.08916537 130 295 C129.29101562 295.52335937 128.58203125 296.04671875 127.8515625 296.5859375 C121.64636275 300.40660634 113.9945485 299.73864844 107 299 C100.46340614 297.30884636 95.05054347 293.37290242 90 289 C89.39542969 288.49855469 88.79085938 287.99710938 88.16796875 287.48046875 C84.6226281 284.06797458 83.49320355 281.16361291 83.125 276.25 C83.83775972 264.02692903 95.57505984 254.9504392 103.56103516 246.53173828 C105.8905455 244.05203894 108.11498384 241.48668131 110.3359375 238.91015625 C112.31540126 236.63795489 114.3458317 234.41540128 116.375 232.1875 C119.46636801 228.76770672 122.42459032 225.28041476 125.3125 221.6875 C128.74220951 217.44233508 132.3344007 213.41748214 136.0625 209.4375 C146.0444436 199.96571302 146.0444436 199.96571302 151.25 188.0625 C151.21217936 185.09887329 151.21217936 185.09887329 150 183.125 C146.6787425 181.25679266 143.6136485 181.09491179 140 182 C137.16285453 183.90610882 135.1533754 186.36657276 133 189 C132.30003906 189.845625 131.60007812 190.69125 130.87890625 191.5625 C129.35097224 193.42673837 127.83168594 195.29809188 126.3203125 197.17578125 C124.11671594 199.85793666 121.83956175 202.43626421 119.5 205 C116.42346328 208.37460948 113.48881783 211.81815864 110.625 215.375 C106.46204105 220.52047548 102.05158742 225.38000421 97.5546875 230.23046875 C95.49886278 232.45918393 93.48383043 234.70767919 91.5 237 C90.33470893 238.33453573 89.16788209 239.66773114 88 241 C87.18015625 241.93714844 86.3603125 242.87429688 85.515625 243.83984375 C70.02153001 261.30197233 70.02153001 261.30197233 61 264 C48.33900331 264.57549985 37.21715336 257.98525994 27.734375 250.12109375 C21.94019813 244.64758698 15.85337406 237.78852955 15.3125 229.5 C16.20196607 218.7128583 23.89899556 211.4151089 31 204 C32.15520269 202.6957389 33.30205331 201.38399578 34.4375 200.0625 C37.86836233 196.11254739 41.41130271 192.268129 44.95507812 188.41992188 C47.48725408 185.6654424 49.99027735 182.89266213 52.4375 180.0625 C56.02274822 175.92699785 59.74484273 171.9225618 63.46557617 167.90942383 C66.42421737 164.71574395 69.35410471 161.50094759 72.25 158.25 C75.10887591 155.04299529 78.03209749 151.91065543 81.0078125 148.8125 C81.72549805 148.06194336 82.44318359 147.31138672 83.18261719 146.53808594 C84.61733393 145.04074014 86.05788362 143.54895625 87.50488281 142.06347656 C91.10120597 138.30360508 94.15343442 134.96219941 96 130 C95.8295453 124.93674373 95.8295453 124.93674373 93 121 C89.22309761 120.21314534 87.21502886 120.30884228 83.84375 122.2265625 C75.95234435 128.19772611 69.4228556 135.76715395 62.77929688 143.05175781 C61.2005955 144.78035784 59.61168551 146.49838416 58.015625 148.2109375 C52.69127357 153.95077301 47.55236009 159.81566359 42.48632812 165.78295898 C39.17844792 169.66628593 35.78499468 173.45107866 32.3125 177.1875 C28.15153609 181.67283815 24.23275785 186.30891803 20.38671875 191.06640625 C17.58372755 194.51165402 14.7437267 197.92190205 11.875 201.3125 C11.39619385 201.88726074 10.9173877 202.46202148 10.42407227 203.05419922 C0.52561496 214.69606768 0.52561496 214.69606768 -6.625 215.3125 C-11.34391213 215.25233172 -15.17743485 213.74614436 -19 211 C-20.73046875 208.859375 -20.73046875 208.859375 -22 207 C-21.28714844 206.63648438 -20.57429687 206.27296875 -19.83984375 205.8984375 C-5.93271498 198.59859871 2.16842677 189.2220533 7 174 C10.00426348 161.55952638 7.5368702 150.13604889 1.5 139.0625 C-2.74425736 132.32226746 -8.48156566 126.69702445 -14 121 C-10.15405308 115.00063527 -6.03883718 109.43633645 -1.4375 104 C3.56048575 97.9855548 8.53278801 91.95338179 13.375 85.8125 C13.94033447 85.11833984 14.50566895 84.42417969 15.08813477 83.70898438 C17.53721513 80.5666813 18.90426784 78.69983509 19.453125 74.6875 C18.84290809 71.06828249 17.6912437 69.47877709 15 67 C12.177754 65.86866319 12.177754 65.86866319 9 66 C6.84823843 67.72140925 5.39772873 69.15616856 3.6875 71.25 C2.97484985 72.07383179 2.97484985 72.07383179 2.24780273 72.91430664 C0.8080614 74.59115349 -0.600412 76.28956038 -2 78 C-2.75539063 78.92167969 -3.51078125 79.84335937 -4.2890625 80.79296875 C-5.73159272 82.56859231 -7.17034843 84.34728841 -8.60546875 86.12890625 C-12.75281525 91.10166266 -17.15197301 95.85874219 -21.62304688 100.54199219 C-22.98246461 101.98143238 -24.29644261 103.46334989 -25.609375 104.9453125 C-28 107 -28 107 -29.9453125 107.07421875 C-32.81223068 105.57535468 -35.28442278 103.75384943 -37.875 101.8125 C-46.76832971 95.27904433 -56.1203326 89.48622752 -65.45605469 83.61279297 C-67.68473289 82.19987088 -69.89775256 80.7676822 -72.1015625 79.31640625 C-80.68422064 73.66545388 -89.40519417 68.73034947 -99 65 C-89.86371708 50.82382945 -77.41870556 39.04592272 -65.55419922 27.18359375 C-62.8623219 24.48730111 -60.18692095 21.77532605 -57.51171875 19.0625 C-55.77702126 17.32193982 -54.04137705 15.58232255 -52.3046875 13.84375 C-51.51899384 13.0436853 -50.73330017 12.24362061 -49.92379761 11.41931152 C-36.271753 -2.12239565 -18.23539212 -9.69476543 0 0 Z " fill="#161617" transform="translate(527,253)"/>
<path d="M0 0 C4.58616998 1.41821321 8.84866126 3.25584567 13.1484375 5.3671875 C14.20558456 5.88123642 14.20558456 5.88123642 15.28408813 6.40567017 C17.6497667 7.55798097 20.01245239 8.71628483 22.375 9.875 C24.06899879 10.70249775 25.76300956 11.529971 27.45703125 12.35742188 C38.07298385 17.55311197 48.65625373 22.81374553 59.2265625 28.1015625 C59.83607128 28.40645473 60.44558006 28.71134697 61.07355881 29.02547836 C67.73231252 32.35702905 74.38811387 35.69437791 81.04052734 39.03857422 C82.76449234 39.90378189 82.76449234 39.90378189 84.52328491 40.78646851 C86.63393443 41.84583857 88.74377299 42.90682743 90.85244751 43.97012329 C97.84389893 47.47727884 104.8876201 50.86313764 111.94946289 54.22583008 C123.34529499 59.65690159 134.64922108 65.2597093 145.93359375 70.91796875 C147.91845468 71.91133572 149.90340636 72.90452141 151.88844299 73.89753723 C157.02648187 76.46843459 162.16331356 79.0417344 167.29986572 81.61560059 C172.57611212 84.25890694 177.85354069 86.89985092 183.13085938 89.54101562 C193.4217073 94.6917468 203.71127679 99.84502611 214 105 C202.83905069 134.11485678 202.83905069 134.11485678 197.64868164 147.14599609 C197.08311979 148.5690653 196.52036963 149.99325464 195.96020508 151.41845703 C192.10736759 161.21909182 187.87677352 170.66122297 183 180 C160.34600407 180.43799348 139.11449618 177.92972776 117 173 C115.67137939 172.70802734 115.67137939 172.70802734 114.31591797 172.41015625 C69.67222085 162.44926211 26.88647232 141.20013549 -9 113 C-9.98355469 112.23042969 -10.96710938 111.46085938 -11.98046875 110.66796875 C-19.31127301 104.79697832 -26.19282297 98.46277894 -33 92 C-33.50047852 91.52820313 -34.00095703 91.05640625 -34.51660156 90.5703125 C-35.91647588 89.24441147 -37.30233222 87.90375757 -38.6875 86.5625 C-39.47511719 85.80066406 -40.26273437 85.03882813 -41.07421875 84.25390625 C-43.22228032 81.73984636 -44.38202071 80.26578287 -45 77 C-43.95748945 74.25296923 -42.88825844 72.02046791 -41.4375 69.5 C-41.02765869 68.75862793 -40.61781738 68.01725586 -40.19555664 67.25341797 C-36.43840415 60.55319742 -32.3868338 54.0300803 -28.3059082 47.52368164 C-23.62809522 40.06333573 -19.10434326 32.51784621 -14.625 24.9375 C-13.97136475 23.83229004 -13.31772949 22.72708008 -12.64428711 21.58837891 C-8.40467493 14.40667557 -4.19533565 7.20764179 0 0 Z " fill="#171717" transform="translate(353,587)"/>
<path d="M0 0 C2.31243792 -0.02685412 4.6249627 -0.04632841 6.9375 -0.0625 C8.22527344 -0.07410156 9.51304687 -0.08570313 10.83984375 -0.09765625 C14 0 14 0 15 1 C17.0708472 1.1584265 19.14678029 1.25124422 21.22265625 1.31640625 C23.11274414 1.37924805 23.11274414 1.37924805 25.04101562 1.44335938 C26.38150736 1.48317596 27.7220022 1.52288814 29.0625 1.5625 C30.40691523 1.60568042 31.7513166 1.64929456 33.09570312 1.69335938 C36.3970234 1.79985358 39.69842236 1.9018646 43 2 C43 2.33 43 2.66 43 3 C38.96561564 3.05026066 34.93135797 3.0861162 30.89672852 3.10986328 C29.5304852 3.11978563 28.16426231 3.13332786 26.7980957 3.15087891 C17.65653373 3.26519046 8.98841031 2.70157293 0 1 C0 0.67 0 0.34 0 0 Z " fill="#242424" transform="translate(493,140)"/>
<path d="M0 0 C-3.37760373 2.25173582 -5.98222224 2.8366795 -9.9375 3.6875 C-11.16339844 3.95949219 -12.38929688 4.23148438 -13.65234375 4.51171875 C-16.62455864 4.94523901 -18.23924385 5.03095906 -21 4 C-13.73420371 0.72326834 -7.95636028 -0.15600706 0 0 Z " fill="#0D0D0D" transform="translate(458,193)"/>
<path d="M0 0 C1.11084961 0.07831055 1.11084961 0.07831055 2.24414062 0.15820312 C4.05902709 0.28700152 5.87333325 0.42393262 7.6875 0.5625 C7.6875 0.8925 7.6875 1.2225 7.6875 1.5625 C-1.7175 2.5525 -1.7175 2.5525 -11.3125 3.5625 C-11.3125 2.9025 -11.3125 2.2425 -11.3125 1.5625 C-11.9725 1.2325 -12.6325 0.9025 -13.3125 0.5625 C-8.82082172 -0.63350901 -4.57980207 -0.3560704 0 0 Z " fill="#202020" transform="translate(586.3125,271.4375)"/>
<path d="M0 0 C5.05255964 0.63156995 9.29593201 2.13459373 14 4 C14 4.66 14 5.32 14 6 C14.66 6.33 15.32 6.66 16 7 C15.01 7.495 15.01 7.495 14 8 C11.55667274 6.92481882 9.23245477 5.80191434 6.875 4.5625 C6.21628906 4.22412109 5.55757813 3.88574219 4.87890625 3.53710938 C3.24893453 2.69850074 1.62398091 1.85015189 0 1 C0 0.67 0 0.34 0 0 Z " fill="#1F1F1F" transform="translate(408,591)"/>
<path d="M0 0 C1 4 1 4 -0.21484375 6.578125 C-0.78332031 7.45984375 -1.35179687 8.3415625 -1.9375 9.25 C-2.50339844 10.14203125 -3.06929687 11.0340625 -3.65234375 11.953125 C-4.09707031 12.62859375 -4.54179687 13.3040625 -5 14 C-5.66 13.67 -6.32 13.34 -7 13 C-3.535 6.565 -3.535 6.565 0 0 Z " fill="#1F1F1F" transform="translate(205,783)"/>
<path d="M0 0 C0.33 0 0.66 0 1 0 C1.33 5.28 1.66 10.56 2 16 C1.01 15.67 0.02 15.34 -1 15 C-1.10251672 9.87416389 -1.03590199 5.05002222 0 0 Z " fill="#282727" transform="translate(207,515)"/>
<path d="M0 0 C2.32528287 2.32528287 2.29511025 2.84665898 2.3125 6 C2.33763672 7.051875 2.33763672 7.051875 2.36328125 8.125 C2.18345703 9.053125 2.18345703 9.053125 2 10 C1.01 10.66 0.02 11.32 -1 12 C-0.67 8.04 -0.34 4.08 0 0 Z " fill="#202021" transform="translate(163,428)"/>
<path d="M0 0 C0.66 0.33 1.32 0.66 2 1 C0.02 4.63 -1.96 8.26 -4 12 C-4.66 11.67 -5.32 11.34 -6 11 C-5.01 9.02 -4.02 7.04 -3 5 C-3.66 5 -4.32 5 -5 5 C-5 4.34 -5 3.68 -5 3 C-2.625 1.3125 -2.625 1.3125 0 0 Z " fill="#070808" transform="translate(835,163)"/>
<path d="M0 0 C2.64 0 5.28 0 8 0 C8 0.99 8 1.98 8 3 C5.03 2.67 2.06 2.34 -1 2 C-0.67 1.34 -0.34 0.68 0 0 Z " fill="#212121" transform="translate(580,514)"/>
<path d="M0 0 C2.39073445 3.82517513 2.55966552 7.59665524 3 12 C2.01 11.67 1.02 11.34 0 11 C-1.28571429 3.57142857 -1.28571429 3.57142857 0 0 Z " fill="#212020" transform="translate(857,413)"/>
<path d="M0 0 C0 0.66 0 1.32 0 2 C1.32 2.33 2.64 2.66 4 3 C-0.29 3 -4.58 3 -9 3 C-8 1 -8 1 -6.1875 0.375 C-4 0 -4 0 0 0 Z " fill="#212020" transform="translate(394,332)"/>
<path d="M0 0 C2.72426311 2.35277269 3.8141763 4.62496331 5 8 C2.5625 7.25 2.5625 7.25 0 6 C-0.875 4 -0.875 4 -1 2 C-0.67 1.34 -0.34 0.68 0 0 Z " fill="#0F0E0F" transform="translate(834,807)"/>
<path d="M0 0 C3.82097239 0.53069061 6.06171403 1.49701566 9 4 C6 5 6 5 2.8125 3.5625 C1.884375 3.046875 0.95625 2.53125 0 2 C0 1.34 0 0.68 0 0 Z " fill="#1D1D1D" transform="translate(223,191)"/>
<path d="M0 0 C0.33 0.66 0.66 1.32 1 2 C-1.40545638 3.20272819 -2.94996953 3.10071472 -5.625 3.0625 C-6.85089844 3.04896484 -6.85089844 3.04896484 -8.1015625 3.03515625 C-9.04128906 3.01775391 -9.04128906 3.01775391 -10 3 C-6.93361469 -0.59474709 -4.63005752 -0.26207873 0 0 Z " fill="#232222" transform="translate(486,141)"/>
<path d="M0 0 C0.33 0 0.66 0 1 0 C1 2.97 1 5.94 1 9 C0.01 9.495 0.01 9.495 -1 10 C-2.38125018 7.23749964 -2.19079306 5.05268901 -2 2 C-1.34 1.34 -0.68 0.68 0 0 Z " fill="#212121" transform="translate(161,457)"/>
<path d="M0 0 C3.82097239 0.53069061 6.06171403 1.49701566 9 4 C8.01 4.33 7.02 4.66 6 5 C2.8125 3.125 2.8125 3.125 0 1 C0 0.67 0 0.34 0 0 Z " fill="#1E1E1E" transform="translate(373,597)"/>
<path d="M0 0 C0.33 0 0.66 0 1 0 C1 2.64 1 5.28 1 8 C0.01 8 -0.98 8 -2 8 C-2.125 5.125 -2.125 5.125 -2 2 C-1.34 1.34 -0.68 0.68 0 0 Z " fill="#212121" transform="translate(162,447)"/>
<path d="M0 0 C0.33 0 0.66 0 1 0 C1.33 2.97 1.66 5.94 2 9 C1.01 9 0.02 9 -1 9 C-0.67 6.03 -0.34 3.06 0 0 Z " fill="#262626" transform="translate(860,427)"/>
<path d="M0 0 C3.82097239 0.53069061 6.06171403 1.49701566 9 4 C8.01 4.33 7.02 4.66 6 5 C2.8125 3.125 2.8125 3.125 0 1 C0 0.67 0 0.34 0 0 Z " fill="#1E1E1F" transform="translate(701,387)"/>
</svg>
